<svg width="300" height="300" xmlns="http://www.w3.org/2000/svg">
  <defs>
    <linearGradient id="grad1" x1="0%" y1="0%" x2="100%" y2="100%">
      <stop offset="0%" style="stop-color:#f0f9ff;stop-opacity:1" />
      <stop offset="100%" style="stop-color:#e0f2fe;stop-opacity:1" />
    </linearGradient>
  </defs>
  <rect width="300" height="300" fill="url(#grad1)" />
  
  <!-- Breadboard -->
  <g transform="translate(150, 150)">
    <!-- Main Board -->
    <rect x="-120" y="-70" width="240" height="140" rx="5" fill="#ffffff" stroke="#d0d0d0" stroke-width="2" />
    
    <!-- Power Rails (Top) -->
    <g transform="translate(0, -60)">
      <rect x="-120" y="-8" width="240" height="16" fill="#ff0000" opacity="0.7" />
      <rect x="-120" y="-8" width="240" height="8" fill="#ff0000" />
      <rect x="-120" y="0" width="240" height="8" fill="#0000ff" />
      
      <!-- Power Rail Holes (Top) -->
      <g fill="#000000">
        <!-- Red Rail (Positive) -->
        <circle cx="-115" cy="-4" r="1.5" />
        <circle cx="-105" cy="-4" r="1.5" />
        <circle cx="-95" cy="-4" r="1.5" />
        <circle cx="-85" cy="-4" r="1.5" />
        <circle cx="-75" cy="-4" r="1.5" />
        <circle cx="-65" cy="-4" r="1.5" />
        <circle cx="-55" cy="-4" r="1.5" />
        <circle cx="-45" cy="-4" r="1.5" />
        <circle cx="-35" cy="-4" r="1.5" />
        <circle cx="-25" cy="-4" r="1.5" />
        <circle cx="-15" cy="-4" r="1.5" />
        <circle cx="-5" cy="-4" r="1.5" />
        <circle cx="5" cy="-4" r="1.5" />
        <circle cx="15" cy="-4" r="1.5" />
        <circle cx="25" cy="-4" r="1.5" />
        <circle cx="35" cy="-4" r="1.5" />
        <circle cx="45" cy="-4" r="1.5" />
        <circle cx="55" cy="-4" r="1.5" />
        <circle cx="65" cy="-4" r="1.5" />
        <circle cx="75" cy="-4" r="1.5" />
        <circle cx="85" cy="-4" r="1.5" />
        <circle cx="95" cy="-4" r="1.5" />
        <circle cx="105" cy="-4" r="1.5" />
        <circle cx="115" cy="-4" r="1.5" />
        
        <!-- Blue Rail (Negative) -->
        <circle cx="-115" cy="4" r="1.5" />
        <circle cx="-105" cy="4" r="1.5" />
        <circle cx="-95" cy="4" r="1.5" />
        <circle cx="-85" cy="4" r="1.5" />
        <circle cx="-75" cy="4" r="1.5" />
        <circle cx="-65" cy="4" r="1.5" />
        <circle cx="-55" cy="4" r="1.5" />
        <circle cx="-45" cy="4" r="1.5" />
        <circle cx="-35" cy="4" r="1.5" />
        <circle cx="-25" cy="4" r="1.5" />
        <circle cx="-15" cy="4" r="1.5" />
        <circle cx="-5" cy="4" r="1.5" />
        <circle cx="5" cy="4" r="1.5" />
        <circle cx="15" cy="4" r="1.5" />
        <circle cx="25" cy="4" r="1.5" />
        <circle cx="35" cy="4" r="1.5" />
        <circle cx="45" cy="4" r="1.5" />
        <circle cx="55" cy="4" r="1.5" />
        <circle cx="65" cy="4" r="1.5" />
        <circle cx="75" cy="4" r="1.5" />
        <circle cx="85" cy="4" r="1.5" />
        <circle cx="95" cy="4" r="1.5" />
        <circle cx="105" cy="4" r="1.5" />
        <circle cx="115" cy="4" r="1.5" />
      </g>
      
      <!-- Labels -->
      <text x="-125" y="-4" fill="#ffffff" font-family="Arial" font-size="6" text-anchor="end">+</text>
      <text x="-125" y="4" fill="#ffffff" font-family="Arial" font-size="6" text-anchor="end">-</text>
    </g>
    
    <!-- Power Rails (Bottom) -->
    <g transform="translate(0, 60)">
      <rect x="-120" y="-8" width="240" height="16" fill="#ff0000" opacity="0.7" />
      <rect x="-120" y="-8" width="240" height="8" fill="#ff0000" />
      <rect x="-120" y="0" width="240" height="8" fill="#0000ff" />
      
      <!-- Power Rail Holes (Bottom) -->
      <g fill="#000000">
        <!-- Red Rail (Positive) -->
        <circle cx="-115" cy="-4" r="1.5" />
        <circle cx="-105" cy="-4" r="1.5" />
        <circle cx="-95" cy="-4" r="1.5" />
        <circle cx="-85" cy="-4" r="1.5" />
        <circle cx="-75" cy="-4" r="1.5" />
        <circle cx="-65" cy="-4" r="1.5" />
        <circle cx="-55" cy="-4" r="1.5" />
        <circle cx="-45" cy="-4" r="1.5" />
        <circle cx="-35" cy="-4" r="1.5" />
        <circle cx="-25" cy="-4" r="1.5" />
        <circle cx="-15" cy="-4" r="1.5" />
        <circle cx="-5" cy="-4" r="1.5" />
        <circle cx="5" cy="-4" r="1.5" />
        <circle cx="15" cy="-4" r="1.5" />
        <circle cx="25" cy="-4" r="1.5" />
        <circle cx="35" cy="-4" r="1.5" />
        <circle cx="45" cy="-4" r="1.5" />
        <circle cx="55" cy="-4" r="1.5" />
        <circle cx="65" cy="-4" r="1.5" />
        <circle cx="75" cy="-4" r="1.5" />
        <circle cx="85" cy="-4" r="1.5" />
        <circle cx="95" cy="-4" r="1.5" />
        <circle cx="105" cy="-4" r="1.5" />
        <circle cx="115" cy="-4" r="1.5" />
        
        <!-- Blue Rail (Negative) -->
        <circle cx="-115" cy="4" r="1.5" />
        <circle cx="-105" cy="4" r="1.5" />
        <circle cx="-95" cy="4" r="1.5" />
        <circle cx="-85" cy="4" r="1.5" />
        <circle cx="-75" cy="4" r="1.5" />
        <circle cx="-65" cy="4" r="1.5" />
        <circle cx="-55" cy="4" r="1.5" />
        <circle cx="-45" cy="4" r="1.5" />
        <circle cx="-35" cy="4" r="1.5" />
        <circle cx="-25" cy="4" r="1.5" />
        <circle cx="-15" cy="4" r="1.5" />
        <circle cx="-5" cy="4" r="1.5" />
        <circle cx="5" cy="4" r="1.5" />
        <circle cx="15" cy="4" r="1.5" />
        <circle cx="25" cy="4" r="1.5" />
        <circle cx="35" cy="4" r="1.5" />
        <circle cx="45" cy="4" r="1.5" />
        <circle cx="55" cy="4" r="1.5" />
        <circle cx="65" cy="4" r="1.5" />
        <circle cx="75" cy="4" r="1.5" />
        <circle cx="85" cy="4" r="1.5" />
        <circle cx="95" cy="4" r="1.5" />
        <circle cx="105" cy="4" r="1.5" />
        <circle cx="115" cy="4" r="1.5" />
      </g>
      
      <!-- Labels -->
      <text x="-125" y="-4" fill="#ffffff" font-family="Arial" font-size="6" text-anchor="end">+</text>
      <text x="-125" y="4" fill="#ffffff" font-family="Arial" font-size="6" text-anchor="end">-</text>
    </g>
    
    <!-- Central Divider -->
    <rect x="-5" y="-40" width="10" height="80" fill="#d0d0d0" />
    
    <!-- Terminal Strips (Top Half) -->
    <g transform="translate(0, -25)">
      <!-- Row Labels -->
      <text x="-125" y="0" fill="#000000" font-family="Arial" font-size="8" text-anchor="end">a</text>
      <text x="-125" y="10" fill="#000000" font-family="Arial" font-size="8" text-anchor="end">b</text>
      <text x="-125" y="20" fill="#000000" font-family="Arial" font-size="8" text-anchor="end">c</text>
      <text x="-125" y="30" fill="#000000" font-family="Arial" font-size="8" text-anchor="end">d</text>
      <text x="-125" y="40" fill="#000000" font-family="Arial" font-size="8" text-anchor="end">e</text>
      
      <!-- Left Side Holes -->
      <g fill="#000000">
        <!-- Row a -->
        <circle cx="-115" cy="0" r="1.5" />
        <circle cx="-105" cy="0" r="1.5" />
        <circle cx="-95" cy="0" r="1.5" />
        <circle cx="-85" cy="0" r="1.5" />
        <circle cx="-75" cy="0" r="1.5" />
        <circle cx="-65" cy="0" r="1.5" />
        <circle cx="-55" cy="0" r="1.5" />
        <circle cx="-45" cy="0" r="1.5" />
        <circle cx="-35" cy="0" r="1.5" />
        <circle cx="-25" cy="0" r="1.5" />
        <circle cx="-15" cy="0" r="1.5" />
        
        <!-- Row b -->
        <circle cx="-115" cy="10" r="1.5" />
        <circle cx="-105" cy="10" r="1.5" />
        <circle cx="-95" cy="10" r="1.5" />
        <circle cx="-85" cy="10" r="1.5" />
        <circle cx="-75" cy="10" r="1.5" />
        <circle cx="-65" cy="10" r="1.5" />
        <circle cx="-55" cy="10" r="1.5" />
        <circle cx="-45" cy="10" r="1.5" />
        <circle cx="-35" cy="10" r="1.5" />
        <circle cx="-25" cy="10" r="1.5" />
        <circle cx="-15" cy="10" r="1.5" />
        
        <!-- Row c -->
        <circle cx="-115" cy="20" r="1.5" />
        <circle cx="-105" cy="20" r="1.5" />
        <circle cx="-95" cy="20" r="1.5" />
        <circle cx="-85" cy="20" r="1.5" />
        <circle cx="-75" cy="20" r="1.5" />
        <circle cx="-65" cy="20" r="1.5" />
        <circle cx="-55" cy="20" r="1.5" />
        <circle cx="-45" cy="20" r="1.5" />
        <circle cx="-35" cy="20" r="1.5" />
        <circle cx="-25" cy="20" r="1.5" />
        <circle cx="-15" cy="20" r="1.5" />
        
        <!-- Row d -->
        <circle cx="-115" cy="30" r="1.5" />
        <circle cx="-105" cy="30" r="1.5" />
        <circle cx="-95" cy="30" r="1.5" />
        <circle cx="-85" cy="30" r="1.5" />
        <circle cx="-75" cy="30" r="1.5" />
        <circle cx="-65" cy="30" r="1.5" />
        <circle cx="-55" cy="30" r="1.5" />
        <circle cx="-45" cy="30" r="1.5" />
        <circle cx="-35" cy="30" r="1.5" />
        <circle cx="-25" cy="30" r="1.5" />
        <circle cx="-15" cy="30" r="1.5" />
        
        <!-- Row e -->
        <circle cx="-115" cy="40" r="1.5" />
        <circle cx="-105" cy="40" r="1.5" />
        <circle cx="-95" cy="40" r="1.5" />
        <circle cx="-85" cy="40" r="1.5" />
        <circle cx="-75" cy="40" r="1.5" />
        <circle cx="-65" cy="40" r="1.5" />
        <circle cx="-55" cy="40" r="1.5" />
        <circle cx="-45" cy="40" r="1.5" />
        <circle cx="-35" cy="40" r="1.5" />
        <circle cx="-25" cy="40" r="1.5" />
        <circle cx="-15" cy="40" r="1.5" />
      </g>
      
      <!-- Right Side Holes -->
      <g fill="#000000">
        <!-- Row a -->
        <circle cx="15" cy="0" r="1.5" />
        <circle cx="25" cy="0" r="1.5" />
        <circle cx="35" cy="0" r="1.5" />
        <circle cx="45" cy="0" r="1.5" />
        <circle cx="55" cy="0" r="1.5" />
        <circle cx="65" cy="0" r="1.5" />
        <circle cx="75" cy="0" r="1.5" />
        <circle cx="85" cy="0" r="1.5" />
        <circle cx="95" cy="0" r="1.5" />
        <circle cx="105" cy="0" r="1.5" />
        <circle cx="115" cy="0" r="1.5" />
        
        <!-- Row b -->
        <circle cx="15" cy="10" r="1.5" />
        <circle cx="25" cy="10" r="1.5" />
        <circle cx="35" cy="10" r="1.5" />
        <circle cx="45" cy="10" r="1.5" />
        <circle cx="55" cy="10" r="1.5" />
        <circle cx="65" cy="10" r="1.5" />
        <circle cx="75" cy="10" r="1.5" />
        <circle cx="85" cy="10" r="1.5" />
        <circle cx="95" cy="10" r="1.5" />
        <circle cx="105" cy="10" r="1.5" />
        <circle cx="115" cy="10" r="1.5" />
        
        <!-- Row c -->
        <circle cx="15" cy="20" r="1.5" />
        <circle cx="25" cy="20" r="1.5" />
        <circle cx="35" cy="20" r="1.5" />
        <circle cx="45" cy="20" r="1.5" />
        <circle cx="55" cy="20" r="1.5" />
        <circle cx="65" cy="20" r="1.5" />
        <circle cx="75" cy="20" r="1.5" />
        <circle cx="85" cy="20" r="1.5" />
        <circle cx="95" cy="20" r="1.5" />
        <circle cx="105" cy="20" r="1.5" />
        <circle cx="115" cy="20" r="1.5" />
        
        <!-- Row d -->
        <circle cx="15" cy="30" r="1.5" />
        <circle cx="25" cy="30" r="1.5" />
        <circle cx="35" cy="30" r="1.5" />
        <circle cx="45" cy="30" r="1.5" />
        <circle cx="55" cy="30" r="1.5" />
        <circle cx="65" cy="30" r="1.5" />
        <circle cx="75" cy="30" r="1.5" />
        <circle cx="85" cy="30" r="1.5" />
        <circle cx="95" cy="30" r="1.5" />
        <circle cx="105" cy="30" r="1.5" />
        <circle cx="115" cy="30" r="1.5" />
        
        <!-- Row e -->
        <circle cx="15" cy="40" r="1.5" />
        <circle cx="25" cy="40" r="1.5" />
        <circle cx="35" cy="40" r="1.5" />
        <circle cx="45" cy="40" r="1.5" />
        <circle cx="55" cy="40" r="1.5" />
        <circle cx="65" cy="40" r="1.5" />
        <circle cx="75" cy="40" r="1.5" />
        <circle cx="85" cy="40" r="1.5" />
        <circle cx="95" cy="40" r="1.5" />
        <circle cx="105" cy="40" r="1.5" />
        <circle cx="115" cy="40" r="1.5" />
      </g>
    </g>
    
    <!-- Terminal Strips (Bottom Half) -->
    <g transform="translate(0, 25)">
      <!-- Row Labels -->
      <text x="-125" y="0" fill="#000000" font-family="Arial" font-size="8" text-anchor="end">f</text>
      <text x="-125" y="10" fill="#000000" font-family="Arial" font-size="8" text-anchor="end">g</text>
      <text x="-125" y="20" fill="#000000" font-family="Arial" font-size="8" text-anchor="end">h</text>
      <text x="-125" y="30" fill="#000000" font-family="Arial" font-size="8" text-anchor="end">i</text>
      <text x="-125" y="40" fill="#000000" font-family="Arial" font-size="8" text-anchor="end">j</text>
      
      <!-- Left Side Holes -->
      <g fill="#000000">
        <!-- Row f -->
        <circle cx="-115" cy="0" r="1.5" />
        <circle cx="-105" cy="0" r="1.5" />
        <circle cx="-95" cy="0" r="1.5" />
        <circle cx="-85" cy="0" r="1.5" />
        <circle cx="-75" cy="0" r="1.5" />
        <circle cx="-65" cy="0" r="1.5" />
        <circle cx="-55" cy="0" r="1.5" />
        <circle cx="-45" cy="0" r="1.5" />
        <circle cx="-35" cy="0" r="1.5" />
        <circle cx="-25" cy="0" r="1.5" />
        <circle cx="-15" cy="0" r="1.5" />
        
        <!-- Row g -->
        <circle cx="-115" cy="10" r="1.5" />
        <circle cx="-105" cy="10" r="1.5" />
        <circle cx="-95" cy="10" r="1.5" />
        <circle cx="-85" cy="10" r="1.5" />
        <circle cx="-75" cy="10" r="1.5" />
        <circle cx="-65" cy="10" r="1.5" />
        <circle cx="-55" cy="10" r="1.5" />
        <circle cx="-45" cy="10" r="1.5" />
        <circle cx="-35" cy="10" r="1.5" />
        <circle cx="-25" cy="10" r="1.5" />
        <circle cx="-15" cy="10" r="1.5" />
        
        <!-- Row h -->
        <circle cx="-115" cy="20" r="1.5" />
        <circle cx="-105" cy="20" r="1.5" />
        <circle cx="-95" cy="20" r="1.5" />
        <circle cx="-85" cy="20" r="1.5" />
        <circle cx="-75" cy="20" r="1.5" />
        <circle cx="-65" cy="20" r="1.5" />
        <circle cx="-55" cy="20" r="1.5" />
        <circle cx="-45" cy="20" r="1.5" />
        <circle cx="-35" cy="20" r="1.5" />
        <circle cx="-25" cy="20" r="1.5" />
        <circle cx="-15" cy="20" r="1.5" />
        
        <!-- Row i -->
        <circle cx="-115" cy="30" r="1.5" />
        <circle cx="-105" cy="30" r="1.5" />
        <circle cx="-95" cy="30" r="1.5" />
        <circle cx="-85" cy="30" r="1.5" />
        <circle cx="-75" cy="30" r="1.5" />
        <circle cx="-65" cy="30" r="1.5" />
        <circle cx="-55" cy="30" r="1.5" />
        <circle cx="-45" cy="30" r="1.5" />
        <circle cx="-35" cy="30" r="1.5" />
        <circle cx="-25" cy="30" r="1.5" />
        <circle cx="-15" cy="30" r="1.5" />
        
        <!-- Row j -->
        <circle cx="-115" cy="40" r="1.5" />
        <circle cx="-105" cy="40" r="1.5" />
        <circle cx="-95" cy="40" r="1.5" />
        <circle cx="-85" cy="40" r="1.5" />
        <circle cx="-75" cy="40" r="1.5" />
        <circle cx="-65" cy="40" r="1.5" />
        <circle cx="-55" cy="40" r="1.5" />
        <circle cx="-45" cy="40" r="1.5" />
        <circle cx="-35" cy="40" r="1.5" />
        <circle cx="-25" cy="40" r="1.5" />
        <circle cx="-15" cy="40" r="1.5" />
      </g>
      
      <!-- Right Side Holes -->
      <g fill="#000000">
        <!-- Row f -->
        <circle cx="15" cy="0" r="1.5" />
        <circle cx="25" cy="0" r="1.5" />
        <circle cx="35" cy="0" r="1.5" />
        <circle cx="45" cy="0" r="1.5" />
        <circle cx="55" cy="0" r="1.5" />
        <circle cx="65" cy="0" r="1.5" />
        <circle cx="75" cy="0" r="1.5" />
        <circle cx="85" cy="0" r="1.5" />
        <circle cx="95" cy="0" r="1.5" />
        <circle cx="105" cy="0" r="1.5" />
        <circle cx="115" cy="0" r="1.5" />
        
        <!-- Row g -->
        <circle cx="15" cy="10" r="1.5" />
        <circle cx="25" cy="10" r="1.5" />
        <circle cx="35" cy="10" r="1.5" />
        <circle cx="45" cy="10" r="1.5" />
        <circle cx="55" cy="10" r="1.5" />
        <circle cx="65" cy="10" r="1.5" />
        <circle cx="75" cy="10" r="1.5" />
        <circle cx="85" cy="10" r="1.5" />
        <circle cx="95" cy="10" r="1.5" />
        <circle cx="105" cy="10" r="1.5" />
        <circle cx="115" cy="10" r="1.5" />
        
        <!-- Row h -->
        <circle cx="15" cy="20" r="1.5" />
        <circle cx="25" cy="20" r="1.5" />
        <circle cx="35" cy="20" r="1.5" />
        <circle cx="45" cy="20" r="1.5" />
        <circle cx="55" cy="20" r="1.5" />
        <circle cx="65" cy="20" r="1.5" />
        <circle cx="75" cy="20" r="1.5" />
        <circle cx="85" cy="20" r="1.5" />
        <circle cx="95" cy="20" r="1.5" />
        <circle cx="105" cy="20" r="1.5" />
        <circle cx="115" cy="20" r="1.5" />
        
        <!-- Row i -->
        <circle cx="15" cy="30" r="1.5" />
        <circle cx="25" cy="30" r="1.5" />
        <circle cx="35" cy="30" r="1.5" />
        <circle cx="45" cy="30" r="1.5" />
        <circle cx="55" cy="30" r="1.5" />
        <circle cx="65" cy="30" r="1.5" />
        <circle cx="75" cy="30" r="1.5" />
        <circle cx="85" cy="30" r="1.5" />
        <circle cx="95" cy="30" r="1.5" />
        <circle cx="105" cy="30" r="1.5" />
        <circle cx="115" cy="30" r="1.5" />
        
        <!-- Row j -->
        <circle cx="15" cy="40" r="1.5" />
        <circle cx="25" cy="40" r="1.5" />
        <circle cx="35" cy="40" r="1.5" />
        <circle cx="45" cy="40" r="1.5" />
        <circle cx="55" cy="40" r="1.5" />
        <circle cx="65" cy="40" r="1.5" />
        <circle cx="75" cy="40" r="1.5" />
        <circle cx="85" cy="40" r="1.5" />
        <circle cx="95" cy="40" r="1.5" />
        <circle cx="105" cy="40" r="1.5" />
        <circle cx="115" cy="40" r="1.5" />
      </g>
    </g>
    
    <!-- Column Numbers -->
    <g fill="#000000" font-family="Arial" font-size="6" text-anchor="middle">
      <!-- Left Side -->
      <text x="-115" y="-75">1</text>
      <text x="-105" y="-75">2</text>
      <text x="-95" y="-75">3</text>
      <text x="-85" y="-75">4</text>
      <text x="-75" y="-75">5</text>
      <text x="-65" y="-75">6</text>
      <text x="-55" y="-75">7</text>
      <text x="-45" y="-75">8</text>
      <text x="-35" y="-75">9</text>
      <text x="-25" y="-75">10</text>
      <text x="-15" y="-75">11</text>
      
      <!-- Right Side -->
      <text x="15" y="-75">12</text>
      <text x="25" y="-75">13</text>
      <text x="35" y="-75">14</text>
      <text x="45" y="-75">15</text>
      <text x="55" y="-75">16</text>
      <text x="65" y="-75">17</text>
      <text x="75" y="-75">18</text>
      <text x="85" y="-75">19</text>
      <text x="95" y="-75">20</text>
      <text x="105" y="-75">21</text>
      <text x="115" y="-75">22</text>
    </g>
  </g>
  
  <!-- Product Name -->
  <g transform="translate(150, 30)">
    <rect x="-80" y="-15" width="160" height="30" rx="5" fill="#0f172a" />
    <text x="0" y="5" fill="#ffffff" font-family="Arial" font-size="14" font-weight="bold" text-anchor="middle">Breadboard</text>
  </g>
</svg>