<svg width="600" height="400" viewBox="0 0 600 400" xmlns="http://www.w3.org/2000/svg">
  <defs>
    <linearGradient id="bgGradient" x1="0%" y1="0%" x2="100%" y2="100%">
      <stop offset="0%" style="stop-color:#4c1d95;stop-opacity:1" />
      <stop offset="100%" style="stop-color:#7c3aed;stop-opacity:1" />
    </linearGradient>
    <radialGradient id="touchGlow" cx="50%" cy="50%" r="50%">
      <stop offset="0%" style="stop-color:#fbbf24;stop-opacity:0.8" />
      <stop offset="100%" style="stop-color:#fbbf24;stop-opacity:0" />
    </radialGradient>
  </defs>
  
  <rect width="100%" height="100%" fill="url(#bgGradient)"/>
  
  <!-- Interactive learning box/maqueta -->
  <g transform="translate(200, 150)">
    <!-- Main box -->
    <rect x="0" y="0" width="200" height="120" rx="8" fill="#1f2937" stroke="#374151" stroke-width="2"/>
    <rect x="10" y="10" width="180" height="100" rx="4" fill="#111827"/>
    
    <!-- Touch points/contacts with enhanced animation -->
    <circle cx="50" cy="40" r="12" fill="#ef4444" stroke="#dc2626" stroke-width="2">
      <animate attributeName="opacity" values="0.8;0.3;0.8" dur="2s" repeatCount="indefinite"/>
      <animate attributeName="r" values="12;16;12" dur="2s" repeatCount="indefinite"/>
    </circle>
    <circle cx="100" cy="40" r="12" fill="#10b981" stroke="#059669" stroke-width="2">
      <animate attributeName="opacity" values="0.3;0.8;0.3" dur="2s" repeatCount="indefinite"/>
      <animate attributeName="r" values="12;16;12" dur="2s" repeatCount="indefinite"/>
    </circle>
    <circle cx="150" cy="40" r="12" fill="#3b82f6" stroke="#2563eb" stroke-width="2">
      <animate attributeName="opacity" values="0.8;0.3;0.8" dur="2s" repeatCount="indefinite"/>
      <animate attributeName="r" values="12;16;12" dur="2s" repeatCount="indefinite"/>
    </circle>
    
    <circle cx="50" cy="80" r="12" fill="#f59e0b" stroke="#d97706" stroke-width="2">
      <animate attributeName="opacity" values="0.5;1;0.5" dur="2.5s" repeatCount="indefinite"/>
    </circle>
    <circle cx="100" cy="80" r="12" fill="#8b5cf6" stroke="#7c3aed" stroke-width="2">
      <animate attributeName="opacity" values="1;0.5;1" dur="2.5s" repeatCount="indefinite"/>
    </circle>
    <circle cx="150" cy="80" r="12" fill="#ec4899" stroke="#db2777" stroke-width="2">
      <animate attributeName="opacity" values="0.5;1;0.5" dur="2.5s" repeatCount="indefinite"/>
    </circle>
    
    <!-- Touch effect on one contact -->
    <circle cx="100" cy="40" r="20" fill="url(#touchGlow)"/>
    
    <!-- Labels -->
    <text x="50" y="55" text-anchor="middle" fill="white" font-family="Arial" font-size="8" font-weight="bold">A</text>
    <text x="100" y="55" text-anchor="middle" fill="white" font-family="Arial" font-size="8" font-weight="bold">B</text>
    <text x="150" y="55" text-anchor="middle" fill="white" font-family="Arial" font-size="8" font-weight="bold">C</text>
    <text x="50" y="95" text-anchor="middle" fill="white" font-family="Arial" font-size="8" font-weight="bold">D</text>
    <text x="100" y="95" text-anchor="middle" fill="white" font-family="Arial" font-size="8" font-weight="bold">E</text>
    <text x="150" y="95" text-anchor="middle" fill="white" font-family="Arial" font-size="8" font-weight="bold">F</text>
  </g>
  
  <!-- Makey Makey board -->
  <g transform="translate(80, 280)">
    <rect x="0" y="0" width="80" height="60" rx="4" fill="#065f46" stroke="#10b981" stroke-width="2"/>
    <text x="40" y="35" text-anchor="middle" fill="white" font-family="Arial" font-size="10" font-weight="bold">MAKEY</text>
    <text x="40" y="48" text-anchor="middle" fill="white" font-family="Arial" font-size="10" font-weight="bold">MAKEY</text>
    
    <!-- Connection pins -->
    <circle cx="15" cy="15" r="3" fill="#fbbf24"/>
    <circle cx="40" cy="15" r="3" fill="#fbbf24"/>
    <circle cx="65" cy="15" r="3" fill="#fbbf24"/>
  </g>
  
  <!-- Computer/tablet -->
  <g transform="translate(450, 100)">
    <rect x="0" y="0" width="120" height="80" rx="6" fill="#374151" stroke="#4b5563" stroke-width="2"/>
    <rect x="8" y="8" width="104" height="64" fill="#1f2937"/>
    
    <!-- Screen content -->
    <rect x="15" y="15" width="90" height="50" fill="#3b82f6" opacity="0.8"/>
    <text x="60" y="35" text-anchor="middle" fill="white" font-family="Arial" font-size="10" font-weight="bold">SMART</text>
    <text x="60" y="50" text-anchor="middle" fill="white" font-family="Arial" font-size="10" font-weight="bold">TOUCH</text>
  </g>
  
  <!-- Connecting wires -->
  <g stroke="#ef4444" stroke-width="3" fill="none">
    <path d="M160,300 Q200,250 250,190"/>
    <path d="M350,190 Q400,150 450,140"/>
  </g>
  
  <!-- Hand touching -->
  <g transform="translate(280, 120)">
    <!-- Hand silhouette -->
    <path d="M0,40 C-5,35 -5,25 0,20 C5,15 15,15 20,20 L25,15 C30,10 40,10 45,15 L50,10 C55,5 65,5 70,10 L75,5 C80,0 90,0 95,5 L95,15 C95,20 90,25 85,25 L80,30 L75,35 L70,40 L65,45 L60,50 L55,55 L50,60 L45,65 L40,70 L35,75 L30,80 L25,75 L20,70 L15,65 L10,60 L5,55 L0,50 Z" fill="#fbbf24" opacity="0.8"/>
    
    <!-- Touch effect -->
    <circle cx="30" cy="45" r="15" fill="url(#touchGlow)"/>
  </g>
  
  <!-- Educational elements floating -->
  <g opacity="0.6">
    <text x="100" y="80" fill="#fbbf24" font-family="Arial" font-size="24">📚</text>
    <text x="500" y="300" fill="#10b981" font-family="Arial" font-size="20">🎓</text>
    <text x="50" y="200" fill="#3b82f6" font-family="Arial" font-size="18">💡</text>
  </g>
  
  <!-- Interactive connection lines -->
  <g stroke="#fbbf24" stroke-width="2" opacity="0.4" stroke-dasharray="5,5">
    <line x1="300" y1="190" x2="320" y2="170"/>
    <line x1="300" y1="190" x2="280" y2="170"/>
    <line x1="300" y1="190" x2="300" y2="170"/>
  </g>
  
  <!-- Background particles -->
  <g opacity="0.3">
    <circle cx="100" cy="100" r="2" fill="#fbbf24"/>
    <circle cx="500" cy="150" r="1.5" fill="#8b5cf6"/>
    <circle cx="150" cy="300" r="2.5" fill="#06d6a0"/>
    <circle cx="450" cy="320" r="1" fill="#f72585"/>
    <circle cx="80" cy="250" r="1.5" fill="#4f9cf9"/>
  </g>
  
  <!-- Title -->
  <text x="300" y="40" text-anchor="middle" fill="white" font-family="Arial" font-size="22" font-weight="bold">SMARTTOUCH</text>
  <text x="300" y="380" text-anchor="middle" fill="#e2e8f0" font-family="Arial" font-size="14">Aprendizaje Interactivo • Tecnología Educativa • Innovación</text>
</svg>