<svg width="600" height="400" xmlns="http://www.w3.org/2000/svg">
  <defs>
    <linearGradient id="grad1" x1="0%" y1="0%" x2="100%" y2="100%">
      <stop offset="0%" style="stop-color:#3b82f6;stop-opacity:1" />
      <stop offset="100%" style="stop-color:#1e40af;stop-opacity:1" />
    </linearGradient>
  </defs>
  <rect width="600" height="400" fill="url(#grad1)" />
  
  <!-- Mesa de trabajo -->
  <rect x="100" y="250" width="400" height="20" fill="#8b5cf6" />
  <rect x="120" y="270" width="10" height="80" fill="#8b5cf6" />
  <rect x="470" y="270" width="10" height="80" fill="#8b5cf6" />
  
  <!-- Robot educativo -->
  <g transform="translate(300, 200)">
    <!-- Cuerpo del robot -->
    <rect x="-40" y="-40" width="80" height="80" rx="10" fill="#f0f0f0" />
    
    <!-- Ruedas -->
    <rect x="-50" y="20" width="20" height="30" rx="5" fill="#333" />
    <rect x="30" y="20" width="20" height="30" rx="5" fill="#333" />
    
    <!-- Ojos/Sensores -->
    <circle cx="-15" cy="-15" r="10" fill="#333" />
    <circle cx="15" cy="-15" r="10" fill="#333" />
    <circle cx="-15" cy="-15" r="5" fill="#ff0000" />
    <circle cx="15" cy="-15" r="5" fill="#ff0000" />
    
    <!-- Brazos -->
    <rect x="-60" y="-20" width="20" height="10" rx="5" fill="#f0f0f0" />
    <rect x="40" y="-20" width="20" height="10" rx="5" fill="#f0f0f0" />
  </g>
  
  <!-- Componentes electrónicos -->
  <g transform="translate(180, 200)">
    <!-- Placa Arduino -->
    <rect x="-30" y="-20" width="60" height="40" rx="5" fill="#00979d" />
    <circle cx="-20" cy="-10" r="3" fill="#f0f0f0" />
    <circle cx="-10" cy="-10" r="3" fill="#f0f0f0" />
    <circle cx="0" cy="-10" r="3" fill="#f0f0f0" />
    <circle cx="10" cy="-10" r="3" fill="#f0f0f0" />
    <circle cx="20" cy="-10" r="3" fill="#f0f0f0" />
    <circle cx="-20" cy="10" r="3" fill="#f0f0f0" />
    <circle cx="-10" cy="10" r="3" fill="#f0f0f0" />
    <circle cx="0" cy="10" r="3" fill="#f0f0f0" />
    <circle cx="10" cy="10" r="3" fill="#f0f0f0" />
    <circle cx="20" cy="10" r="3" fill="#f0f0f0" />
  </g>
  
  <!-- Herramientas -->
  <g transform="translate(420, 200)">
    <!-- Destornillador -->
    <rect x="-25" y="-5" width="50" height="10" rx="2" fill="#ff0000" />
    <rect x="25" y="-3" width="15" height="6" rx="1" fill="#c0c0c0" />
    
    <!-- Pinzas -->
    <path d="M-40,-10 L-20,-5 L-20,5 L-40,10 Z" fill="#333" />
    <rect x="-20" y="-3" width="10" height="6" fill="#333" />
  </g>
  
  <!-- Estudiantes (siluetas) -->
  <g opacity="0.7" fill="#ffffff">
    <ellipse cx="150" cy="350" rx="20" ry="30" />
    <circle cx="150" cy="300" r="15" />
    
    <ellipse cx="300" cy="350" rx="20" ry="30" />
    <circle cx="300" cy="300" r="15" />
    
    <ellipse cx="450" cy="350" rx="20" ry="30" />
    <circle cx="450" cy="300" r="15" />
  </g>
  
  <!-- Pizarra/Pantalla -->
  <rect x="200" y="50" width="200" height="100" fill="#f0f0f0" />
  <rect x="210" y="60" width="180" height="80" fill="#333" />
  <g fill="none" stroke="#00ff00" stroke-width="2">
    <path d="M230,80 L250,100 L270,90 L290,110 L310,70 L330,100 L350,80" />
    <rect x="260" y="100" width="30" height="20" rx="5" />
  </g>
</svg>