<svg width="100" height="100" viewBox="0 0 100 100" xmlns="http://www.w3.org/2000/svg">
  <defs>
    <linearGradient id="avatarGradient" x1="0%" y1="0%" x2="100%" y2="100%">
      <stop offset="0%" style="stop-color:#3b82f6;stop-opacity:1" />
      <stop offset="100%" style="stop-color:#1e40af;stop-opacity:1" />
    </linearGradient>
    <linearGradient id="faceGradient" x1="0%" y1="0%" x2="100%" y2="100%">
      <stop offset="0%" style="stop-color:#fbbf24;stop-opacity:1" />
      <stop offset="100%" style="stop-color:#f59e0b;stop-opacity:1" />
    </linearGradient>
  </defs>
  
  <!-- Background circle -->
  <circle cx="50" cy="50" r="50" fill="url(#avatarGradient)"/>
  
  <!-- Head with enhanced gradient -->
  <defs>
    <radialGradient id="headGradient" cx="0.3" cy="0.3">
      <stop offset="0%" stop-color="#fde68a"/>
      <stop offset="100%" stop-color="#fbbf24"/>
    </radialGradient>
  </defs>
  <circle cx="50" cy="35" r="18" fill="url(#headGradient)"/>
  
  <!-- Eyes with highlights -->
  <circle cx="45" cy="30" r="2.5" fill="#1f2937"/>
  <circle cx="55" cy="30" r="2.5" fill="#1f2937"/>
  <circle cx="46" cy="29" r="0.8" fill="#ffffff" opacity="0.8"/>
  <circle cx="56" cy="29" r="0.8" fill="#ffffff" opacity="0.8"/>
  
  <!-- Smile -->
  <path d="M42,38 Q50,45 58,38" stroke="#1f2937" stroke-width="2" fill="none" stroke-linecap="round"/>
  
  <!-- Body/Shoulders -->
  <ellipse cx="50" cy="75" rx="25" ry="20" fill="#374151"/>
  
  <!-- Tech elements around -->
  <g opacity="0.3">
    <!-- Circuit lines -->
    <line x1="15" y1="20" x2="25" y2="20" stroke="#60a5fa" stroke-width="1"/>
    <line x1="75" y1="20" x2="85" y2="20" stroke="#60a5fa" stroke-width="1"/>
    <line x1="20" y1="80" x2="30" y2="80" stroke="#60a5fa" stroke-width="1"/>
    <line x1="70" y1="80" x2="80" y2="80" stroke="#60a5fa" stroke-width="1"/>
    
    <!-- Small tech dots -->
    <circle cx="20" cy="35" r="1" fill="#60a5fa"/>
    <circle cx="80" cy="35" r="1" fill="#60a5fa"/>
    <circle cx="25" cy="65" r="1" fill="#60a5fa"/>
    <circle cx="75" cy="65" r="1" fill="#60a5fa"/>
  </g>
  
  <!-- Enhanced Supernova star with glow -->
  <g transform="translate(75, 25) scale(0.3)" opacity="0.8">
    <circle cx="0" cy="0" r="25" fill="#fbbf24" opacity="0.2"/>
    <path d="M0,-20 L6,-6 L20,-6 L10,2 L16,16 L0,8 L-16,16 L-10,2 L-20,-6 L-6,-6 Z" fill="#fbbf24"/>
    <path d="M0,-12 L3.5,-3.5 L12,-3.5 L6,1.5 L9.5,10 L0,5 L-9.5,10 L-6,1.5 L-12,-3.5 L-3.5,-3.5 Z" fill="#ffffff" opacity="0.6"/>
  </g>
</svg>